<!DOCTYPE svg [<!ENTITY nbsp "&#160;">]><svg width="100%" height="100%" viewBox="0.00 0.00 875.13 164.00" xmlns="http://www.w3.org/2000/svg" xmlns:xlink="http://www.w3.org/1999/xlink">
<g id="graph0" class="graph" transform="scale(1 1) rotate(0) translate(4 160)">
<title>state transitions</title>
<polygon fill="#ffffff" stroke="transparent" points="-4,4 -4,-160 871.128,-160 871.128,4 -4,4"></polygon>
<g id="clust1" class="cluster state regular">
<title>cluster_toggleSelected</title>
<path fill="none" stroke="#000000" stroke-width="2" d="M41.779,-8C41.779,-8 817.349,-8 817.349,-8 823.349,-8 829.349,-14 829.349,-20 829.349,-20 829.349,-136 829.349,-136 829.349,-142 823.349,-148 817.349,-148 817.349,-148 41.779,-148 41.779,-148 35.779,-148 29.779,-142 29.779,-136 29.779,-136 29.779,-20 29.779,-20 29.779,-14 35.779,-8 41.779,-8"></path>
<text text-anchor="start" x="390.3818" y="-129.2" font-family="Helvetica,sans-Serif" font-size="12.00" fill="#000000">toggleSelected</text>
</g>
<!-- initial -->
<g id="node1" class="node state initial">
<title>initial</title>
<ellipse fill="#000000" stroke="#000000" stroke-width="2" cx="5.5" cy="-40" rx="5.5" ry="5.5"></ellipse>
</g>
<!-- ^selected? -->
<g id="node10" class="node state choice">
<title>^selected?</title>
<polygon fill="#ffffff" fill-opacity="0.003922" stroke="#000000" stroke-width="2" points="50.279,-52.5 37.779,-40 50.279,-27.5 62.779,-40 50.279,-52.5"></polygon>
<text text-anchor="middle" x="50.279" y="-37" font-family="Helvetica,sans-Serif" font-size="10.00" fill="#000000"> </text>
</g>
<!-- initial&#45;&gt;^selected? -->
<g id="edge2" class="edge transition">
<title>initial-&gt;^selected?</title>
<path fill="none" stroke="#000000" d="M11.3541,-40C15.5028,-40 21.3628,-40 27.2797,-40"></path>
<polygon fill="#000000" stroke="#000000" points="27.6342,-43.5001 37.6342,-40 27.6341,-36.5001 27.6342,-43.5001"></polygon>
<text text-anchor="middle" x="20.3895" y="-43" font-family="Helvetica,sans-Serif" font-size="10.00" fill="#000000"> </text>
</g>
<!-- final -->
<g id="node2" class="node state final">
<title>final</title>
<ellipse fill="#000000" stroke="#000000" stroke-width="2" cx="857.628" cy="-54" rx="5.5" ry="5.5"></ellipse>
<ellipse fill="none" stroke="#000000" stroke-width="2" cx="857.628" cy="-54" rx="9.5" ry="9.5"></ellipse>
</g>
<!-- toggleSelected -->
<!-- red stroke -->
<g id="node4" class="node state regular">
<title>red stroke</title>
<polygon fill="#ffffff" fill-opacity="0.003922" stroke="transparent" stroke-width="2" points="657.791,-109 582.791,-109 582.791,-73 657.791,-73 657.791,-109"></polygon>
<text text-anchor="start" x="594.1198" y="-87.2" font-family="Helvetica,sans-Serif" font-size="12.00" fill="#000000">red stroke</text>
<path fill="none" stroke="#000000" stroke-width="2" d="M595.1243,-74C595.1243,-74 645.4577,-74 645.4577,-74 651.1243,-74 656.791,-79.6667 656.791,-85.3333 656.791,-85.3333 656.791,-96.6667 656.791,-96.6667 656.791,-102.3333 651.1243,-108 645.4577,-108 645.4577,-108 595.1243,-108 595.1243,-108 589.4577,-108 583.791,-102.3333 583.791,-96.6667 583.791,-96.6667 583.791,-85.3333 583.791,-85.3333 583.791,-79.6667 589.4577,-74 595.1243,-74"></path>
</g>
<!-- add class &#39;selected&#39; -->
<g id="node7" class="node state regular">
<title>add class 'selected'</title>
<polygon fill="#ffffff" fill-opacity="0.003922" stroke="transparent" stroke-width="2" points="821.349,-107 696.349,-107 696.349,-71 821.349,-71 821.349,-107"></polygon>
<text text-anchor="start" x="707.35" y="-85.2" font-family="Helvetica,sans-Serif" font-size="12.00" fill="#000000">add class 'selected'</text>
<path fill="none" stroke="#000000" stroke-width="2" d="M708.6823,-72C708.6823,-72 809.0157,-72 809.0157,-72 814.6823,-72 820.349,-77.6667 820.349,-83.3333 820.349,-83.3333 820.349,-94.6667 820.349,-94.6667 820.349,-100.3333 814.6823,-106 809.0157,-106 809.0157,-106 708.6823,-106 708.6823,-106 703.0157,-106 697.349,-100.3333 697.349,-94.6667 697.349,-94.6667 697.349,-83.3333 697.349,-83.3333 697.349,-77.6667 703.0157,-72 708.6823,-72"></path>
</g>
<!-- red stroke&#45;&gt;add class &#39;selected&#39; -->
<g id="edge9" class="edge transition">
<title>red stroke-&gt;add class 'selected'</title>
<path fill="none" stroke="#000000" d="M658.1526,-90.4535C666.8944,-90.3273 676.483,-90.1889 686.1605,-90.0492"></path>
<polygon fill="#000000" stroke="#000000" points="686.2976,-93.5477 696.246,-89.9036 686.1965,-86.5484 686.2976,-93.5477"></polygon>
<text text-anchor="middle" x="677.9595" y="-93" font-family="Helvetica,sans-Serif" font-size="10.00" fill="#000000"> </text>
</g>
<!-- black stroke -->
<g id="node5" class="node state regular">
<title>black stroke</title>
<polygon fill="#ffffff" fill-opacity="0.003922" stroke="transparent" stroke-width="2" points="284.233,-110 198.233,-110 198.233,-74 284.233,-74 284.233,-110"></polygon>
<text text-anchor="start" x="209.2278" y="-88.2" font-family="Helvetica,sans-Serif" font-size="12.00" fill="#000000">black stroke</text>
<path fill="none" stroke="#000000" stroke-width="2" d="M210.5663,-75C210.5663,-75 271.8997,-75 271.8997,-75 277.5663,-75 283.233,-80.6667 283.233,-86.3333 283.233,-86.3333 283.233,-97.6667 283.233,-97.6667 283.233,-103.3333 277.5663,-109 271.8997,-109 271.8997,-109 210.5663,-109 210.5663,-109 204.8997,-109 199.233,-103.3333 199.233,-97.6667 199.233,-97.6667 199.233,-86.3333 199.233,-86.3333 199.233,-80.6667 204.8997,-75 210.5663,-75"></path>
</g>
<!-- remove class &#39;selected&#39; -->
<g id="node6" class="node state regular">
<title>remove class 'selected'</title>
<polygon fill="#ffffff" fill-opacity="0.003922" stroke="transparent" stroke-width="2" points="542.012,-110 397.012,-110 397.012,-74 542.012,-74 542.012,-110"></polygon>
<text text-anchor="start" x="408.0182" y="-88.2" font-family="Helvetica,sans-Serif" font-size="12.00" fill="#000000">remove class 'selected'</text>
<path fill="none" stroke="#000000" stroke-width="2" d="M409.3453,-75C409.3453,-75 529.6787,-75 529.6787,-75 535.3453,-75 541.012,-80.6667 541.012,-86.3333 541.012,-86.3333 541.012,-97.6667 541.012,-97.6667 541.012,-103.3333 535.3453,-109 529.6787,-109 529.6787,-109 409.3453,-109 409.3453,-109 403.6787,-109 398.012,-103.3333 398.012,-97.6667 398.012,-97.6667 398.012,-86.3333 398.012,-86.3333 398.012,-80.6667 403.6787,-75 409.3453,-75"></path>
</g>
<!-- black stroke&#45;&gt;remove class &#39;selected&#39; -->
<g id="edge7" class="edge transition">
<title>black stroke-&gt;remove class 'selected'</title>
<path fill="none" stroke="#000000" d="M284.4389,-92C313.2621,-92 352.0838,-92 386.7276,-92"></path>
<polygon fill="#000000" stroke="#000000" points="386.8512,-95.5001 396.8511,-92 386.8511,-88.5001 386.8512,-95.5001"></polygon>
<text text-anchor="middle" x="374.6225" y="-95" font-family="Helvetica,sans-Serif" font-size="10.00" fill="#000000"> </text>
</g>
<!-- remove class &#39;selected&#39;&#45;&gt;red stroke -->
<g id="edge8" class="edge transition">
<title>remove class 'selected'-&gt;red stroke</title>
<path fill="none" stroke="#000000" d="M542.2516,-91.5176C552.538,-91.4494 562.8903,-91.3807 572.5412,-91.3167"></path>
<polygon fill="#000000" stroke="#000000" points="572.7253,-94.8156 582.7018,-91.2493 572.6788,-87.8158 572.7253,-94.8156"></polygon>
<text text-anchor="middle" x="564.4015" y="-94" font-family="Helvetica,sans-Serif" font-size="10.00" fill="#000000"> </text>
</g>
<!-- add class &#39;selected&#39;&#45;&gt;final -->
<g id="edge10" class="edge transition">
<title>add class 'selected'-&gt;final</title>
<path fill="none" stroke="#000000" d="M809.6853,-70.9874C820.1885,-67.2658 830.6044,-63.5752 839.0308,-60.5895"></path>
<polygon fill="#000000" stroke="#000000" points="840.2402,-63.8743 848.497,-57.2354 837.9022,-57.2762 840.2402,-63.8743"></polygon>
<text text-anchor="middle" x="838.7385" y="-63" font-family="Helvetica,sans-Serif" font-size="10.00" fill="#000000"> </text>
</g>
<!-- black stroke all elements -->
<g id="node8" class="node state regular">
<title>black stroke all elements</title>
<polygon fill="#ffffff" fill-opacity="0.003922" stroke="transparent" stroke-width="2" points="546.012,-52 393.012,-52 393.012,-16 546.012,-16 546.012,-52"></polygon>
<text text-anchor="start" x="404.336" y="-30.2" font-family="Helvetica,sans-Serif" font-size="12.00" fill="#000000">black stroke all elements</text>
<path fill="none" stroke="#000000" stroke-width="2" d="M405.3453,-17C405.3453,-17 533.6787,-17 533.6787,-17 539.3453,-17 545.012,-22.6667 545.012,-28.3333 545.012,-28.3333 545.012,-39.6667 545.012,-39.6667 545.012,-45.3333 539.3453,-51 533.6787,-51 533.6787,-51 405.3453,-51 405.3453,-51 399.6787,-51 394.012,-45.3333 394.012,-39.6667 394.012,-39.6667 394.012,-28.3333 394.012,-28.3333 394.012,-22.6667 399.6787,-17 405.3453,-17"></path>
</g>
<!-- black stroke all elements&#45;&gt;final -->
<g id="edge6" class="edge transition">
<title>black stroke all elements-&gt;final</title>
<path fill="none" stroke="#000000" d="M546.1594,-34.9462C552.3312,-34.9802 558.4706,-35 564.4015,-35 564.4015,-35 564.4015,-35 758.849,-35 787.0089,-35 818.8847,-42.5383 838.6228,-48.1184"></path>
<polygon fill="#000000" stroke="#000000" points="837.8987,-51.554 848.4806,-51.0313 839.8824,-44.8409 837.8987,-51.554"></polygon>
<text text-anchor="middle" x="667.1805" y="-38" font-family="Helvetica,sans-Serif" font-size="10.00" fill="#000000"> </text>
</g>
<!-- remove class &#39;selected&#39; for all elements -->
<g id="node9" class="node state regular">
<title>remove class 'selected' for all elements</title>
<polygon fill="#ffffff" fill-opacity="0.003922" stroke="transparent" stroke-width="2" points="356.233,-52 126.233,-52 126.233,-16 356.233,-16 356.233,-52"></polygon>
<text text-anchor="start" x="136.9008" y="-30.2" font-family="Helvetica,sans-Serif" font-size="12.00" fill="#000000">remove class 'selected' for all elements</text>
<path fill="none" stroke="#000000" stroke-width="2" d="M138.5663,-17C138.5663,-17 343.8997,-17 343.8997,-17 349.5663,-17 355.233,-22.6667 355.233,-28.3333 355.233,-28.3333 355.233,-39.6667 355.233,-39.6667 355.233,-45.3333 349.5663,-51 343.8997,-51 343.8997,-51 138.5663,-51 138.5663,-51 132.8997,-51 127.233,-45.3333 127.233,-39.6667 127.233,-39.6667 127.233,-28.3333 127.233,-28.3333 127.233,-22.6667 132.8997,-17 138.5663,-17"></path>
</g>
<!-- remove class &#39;selected&#39; for all elements&#45;&gt;black stroke all elements -->
<g id="edge5" class="edge transition">
<title>remove class 'selected' for all elements-&gt;black stroke all elements</title>
<path fill="none" stroke="#000000" d="M356.3757,-34C365.2957,-34 374.2075,-34 382.8932,-34"></path>
<polygon fill="#000000" stroke="#000000" points="382.9726,-37.5001 392.9726,-34 382.9726,-30.5001 382.9726,-37.5001"></polygon>
<text text-anchor="middle" x="374.6225" y="-37" font-family="Helvetica,sans-Serif" font-size="10.00" fill="#000000"> </text>
</g>
<!-- ^selected?&#45;&gt;black stroke -->
<g id="edge3" class="edge transition">
<title>^selected?-&gt;black stroke</title>
<path fill="none" stroke="#000000" d="M58.0092,-44.9673C63.8016,-48.494 72.0307,-53.0996 79.779,-56 114.8483,-69.1273 156.0779,-78.2213 188.095,-83.9852"></path>
<polygon fill="#000000" stroke="#000000" points="187.6939,-87.4681 198.1469,-85.7405 188.898,-80.5724 187.6939,-87.4681"></polygon>
<text text-anchor="start" x="79.779" y="-68" font-family="Helvetica,sans-Serif" font-size="10.00" fill="#000000">[yes] &nbsp;&nbsp;</text>
</g>
<!-- ^selected?&#45;&gt;remove class &#39;selected&#39; for all elements -->
<g id="edge4" class="edge transition">
<title>^selected?-&gt;remove class 'selected' for all elements</title>
<path fill="none" stroke="#000000" d="M62.5145,-39.6155C74.4355,-39.241 93.9111,-38.629 115.714,-37.944"></path>
<polygon fill="#000000" stroke="#000000" points="115.9914,-41.4371 125.8765,-37.6246 115.7715,-34.4405 115.9914,-41.4371"></polygon>
<text text-anchor="start" x="81.9995" y="-42" font-family="Helvetica,sans-Serif" font-size="10.00" fill="#000000">[no] &nbsp;&nbsp;</text>
</g>
<!-- ^selected?&#45;&gt;^selected? -->
<g id="edge1" class="edge state choice">
<title>^selected?-&gt;^selected?</title>
<path fill="none" stroke="#ffffff" stroke-opacity="0.003922" d="M47.526,-49.889C45.5723,-61.2916 46.4899,-74.5 50.279,-74.5 52.9728,-74.5 54.2153,-67.824 54.0065,-59.8672"></path>
<polygon fill="#ffffff" fill-opacity="0.003922" stroke="#ffffff" stroke-opacity="0.003922" points="57.4875,-59.5014 53.032,-49.889 50.5206,-60.1818 57.4875,-59.5014"></polygon>
<text text-anchor="start" x="4.4465" y="-77.5" font-family="Helvetica,sans-Serif" font-size="10.00" fill="#000000">has class 'selected'?</text>
</g>
</g>
</svg>