<?xml version="1.0" encoding="UTF-8" standalone="no"?>
<!DOCTYPE svg PUBLIC "-//W3C//DTD SVG 1.1//EN"
 "http://www.w3.org/Graphics/SVG/1.1/DTD/svg11.dtd">
<!-- Generated by graphviz version 2.40.1 (20161225.0304)
 -->
<!-- Title: state transitions Pages: 1 -->
<svg width="298pt" height="468pt"
 viewBox="0.00 0.00 298.00 468.00" xmlns="http://www.w3.org/2000/svg" xmlns:xlink="http://www.w3.org/1999/xlink">
<g id="graph0" class="graph" transform="scale(1 1) rotate(0) translate(4 464)">
<title>state transitions</title>
<polygon fill="#ffffff" stroke="transparent" points="-4,4 -4,-464 294,-464 294,4 -4,4"/>
<g id="clust1" class="cluster state parallel">
<title>cluster_zobix</title>
<path fill="none" stroke="#000000" stroke-width="2" d="M20,-111C20,-111 270,-111 270,-111 276,-111 282,-117 282,-123 282,-123 282,-345 282,-345 282,-351 276,-357 270,-357 270,-357 20,-357 20,-357 14,-357 8,-351 8,-345 8,-345 8,-123 8,-123 8,-117 14,-111 20,-111"/>
<text text-anchor="start" x="130.9978" y="-338.2" font-family="Helvetica,sans-Serif" font-size="12.00" fill="#000000">zobix</text>
</g>
<g id="clust2" class="cluster state regular">
<title>cluster_first</title>
<polygon fill="none" stroke="#000000" stroke-dasharray="5,2" points="30,-119 30,-319 138,-319 138,-119 30,-119"/>
<text text-anchor="start" x="74.8364" y="-300.2" font-family="Helvetica,sans-Serif" font-size="12.00" fill="#000000">first</text>
</g>
<g id="clust3" class="cluster state regular">
<title>cluster_second</title>
<polygon fill="none" stroke="#000000" stroke-dasharray="5,2" points="146,-119 146,-319 274,-319 274,-119 146,-119"/>
<text text-anchor="start" x="190.6584" y="-300.2" font-family="Helvetica,sans-Serif" font-size="12.00" fill="#000000">second</text>
</g>
<!-- initial -->
<g id="node1" class="node state initial">
<title>initial</title>
<ellipse fill="#000000" stroke="#000000" stroke-width="2" cx="136" cy="-454.5" rx="5.5" ry="5.5"/>
</g>
<!-- ]split -->
<g id="node2" class="node state fork">
<title>]split</title>
<polygon fill="#000000" stroke="#000000" stroke-width="2" points="139.5,-421 132.5,-421 132.5,-385 139.5,-385 139.5,-421"/>
<text text-anchor="middle" x="136" y="-399.4" font-family="Helvetica,sans-Serif" font-size="12.00" fill="#000000"> </text>
</g>
<!-- initial&#45;&gt;]split -->
<g id="edge1" class="edge transition">
<title>initial&#45;&gt;]split</title>
<path fill="none" stroke="#000000" d="M136,-448.9886C136,-444.6293 136,-438.1793 136,-431.4801"/>
<polygon fill="#000000" stroke="#000000" points="139.5001,-431.0122 136,-421.0122 132.5001,-431.0122 139.5001,-431.0122"/>
<text text-anchor="middle" x="137.3895" y="-432" font-family="Helvetica,sans-Serif" font-size="10.00" fill="#000000"> </text>
</g>
<!-- first.thing -->
<g id="node7" class="node state regular">
<title>first.thing</title>
<polygon fill="#ffffff" fill-opacity="0.003922" stroke="transparent" stroke-width="2" points="108,-281 38,-281 38,-245 108,-245 108,-281"/>
<text text-anchor="start" x="48.664" y="-259.2" font-family="Helvetica,sans-Serif" font-size="12.00" fill="#000000">first.thing</text>
<path fill="none" stroke="#000000" stroke-width="2" d="M50.3333,-246C50.3333,-246 95.6667,-246 95.6667,-246 101.3333,-246 107,-251.6667 107,-257.3333 107,-257.3333 107,-268.6667 107,-268.6667 107,-274.3333 101.3333,-280 95.6667,-280 95.6667,-280 50.3333,-280 50.3333,-280 44.6667,-280 39,-274.3333 39,-268.6667 39,-268.6667 39,-257.3333 39,-257.3333 39,-251.6667 44.6667,-246 50.3333,-246"/>
</g>
<!-- ]split&#45;&gt;first.thing -->
<g id="edge2" class="edge transition">
<title>]split&#45;&gt;first.thing</title>
<path fill="none" stroke="#000000" d="M132.4323,-395.0719C123.5627,-375.3615 100.1749,-323.3886 85.5219,-290.8266"/>
<polygon fill="#000000" stroke="#000000" points="88.5761,-289.0844 81.2807,-281.4015 82.1926,-291.957 88.5761,-289.0844"/>
<text text-anchor="middle" x="124.3895" y="-368" font-family="Helvetica,sans-Serif" font-size="10.00" fill="#000000"> </text>
</g>
<!-- second.thing -->
<g id="node10" class="node state regular">
<title>second.thing</title>
<polygon fill="#ffffff" fill-opacity="0.003922" stroke="transparent" stroke-width="2" points="244,-281 154,-281 154,-245 244,-245 244,-281"/>
<text text-anchor="start" x="164.986" y="-259.2" font-family="Helvetica,sans-Serif" font-size="12.00" fill="#000000">second.thing</text>
<path fill="none" stroke="#000000" stroke-width="2" d="M166.3333,-246C166.3333,-246 231.6667,-246 231.6667,-246 237.3333,-246 243,-251.6667 243,-257.3333 243,-257.3333 243,-268.6667 243,-268.6667 243,-274.3333 237.3333,-280 231.6667,-280 231.6667,-280 166.3333,-280 166.3333,-280 160.6667,-280 155,-274.3333 155,-268.6667 155,-268.6667 155,-257.3333 155,-257.3333 155,-251.6667 160.6667,-246 166.3333,-246"/>
</g>
<!-- ]split&#45;&gt;second.thing -->
<g id="edge3" class="edge transition">
<title>]split&#45;&gt;second.thing</title>
<path fill="none" stroke="#000000" d="M139.5677,-395.0719C148.4373,-375.3615 171.8251,-323.3886 186.4781,-290.8266"/>
<polygon fill="#000000" stroke="#000000" points="189.8074,-291.957 190.7193,-281.4015 183.4239,-289.0844 189.8074,-291.957"/>
<text text-anchor="middle" x="153.3895" y="-368" font-family="Helvetica,sans-Serif" font-size="10.00" fill="#000000"> </text>
</g>
<!-- ]merge -->
<g id="node3" class="node state join">
<title>]merge</title>
<polygon fill="#000000" stroke="#000000" stroke-width="2" points="145.5,-83 138.5,-83 138.5,-47 145.5,-47 145.5,-83"/>
<text text-anchor="middle" x="142" y="-61.4" font-family="Helvetica,sans-Serif" font-size="12.00" fill="#000000"> </text>
</g>
<!-- final -->
<g id="node4" class="node state final">
<title>final</title>
<ellipse fill="#000000" stroke="#000000" stroke-width="2" cx="142" cy="-9.5" rx="5.5" ry="5.5"/>
<ellipse fill="none" stroke="#000000" stroke-width="2" cx="142" cy="-9.5" rx="9.5" ry="9.5"/>
</g>
<!-- ]merge&#45;&gt;final -->
<g id="edge6" class="edge transition">
<title>]merge&#45;&gt;final</title>
<path fill="none" stroke="#000000" d="M142,-46.8272C142,-41.202 142,-34.9783 142,-29.2515"/>
<polygon fill="#000000" stroke="#000000" points="145.5001,-29.1396 142,-19.1396 138.5001,-29.1397 145.5001,-29.1396"/>
<text text-anchor="middle" x="143.3895" y="-30" font-family="Helvetica,sans-Serif" font-size="10.00" fill="#000000"> </text>
</g>
<!-- zobix -->
<!-- first -->
<!-- first.thang -->
<g id="node8" class="node state regular">
<title>first.thang</title>
<polygon fill="#ffffff" fill-opacity="0.003922" stroke="transparent" stroke-width="2" points="121,-163 47,-163 47,-127 121,-127 121,-163"/>
<text text-anchor="start" x="57.66" y="-141.2" font-family="Helvetica,sans-Serif" font-size="12.00" fill="#000000">first.thang</text>
<path fill="none" stroke="#000000" stroke-width="2" d="M59.3333,-128C59.3333,-128 108.6667,-128 108.6667,-128 114.3333,-128 120,-133.6667 120,-139.3333 120,-139.3333 120,-150.6667 120,-150.6667 120,-156.3333 114.3333,-162 108.6667,-162 108.6667,-162 59.3333,-162 59.3333,-162 53.6667,-162 48,-156.3333 48,-150.6667 48,-150.6667 48,-139.3333 48,-139.3333 48,-133.6667 53.6667,-128 59.3333,-128"/>
</g>
<!-- first.thing&#45;&gt;first.thang -->
<g id="edge7" class="edge transition">
<title>first.thing&#45;&gt;first.thang</title>
<path fill="none" stroke="#000000" d="M76.5806,-244.6439C77.382,-239.1523 78,-233.1016 78,-227.5 78,-227.5 78,-227.5 78,-180.5 78,-178.2146 78.1224,-175.8579 78.3322,-173.4969"/>
<polygon fill="#000000" stroke="#000000" points="81.8359,-173.7039 79.7033,-163.3259 74.8986,-172.7687 81.8359,-173.7039"/>
<text text-anchor="middle" x="79.3895" y="-201" font-family="Helvetica,sans-Serif" font-size="10.00" fill="#000000"> </text>
</g>
<!-- first.thang&#45;&gt;]merge -->
<g id="edge4" class="edge transition">
<title>first.thang&#45;&gt;]merge</title>
<path fill="none" stroke="#000000" d="M97.1611,-126.8468C107.919,-112.0082 122.8718,-91.3837 132.4934,-78.1125"/>
<polygon fill="#000000" stroke="#000000" points="135.385,-80.087 138.4211,-69.9365 129.7177,-75.9782 135.385,-80.087"/>
<text text-anchor="middle" x="122.3895" y="-94" font-family="Helvetica,sans-Serif" font-size="10.00" fill="#000000"> </text>
</g>
<!-- second -->
<!-- second.thang -->
<g id="node11" class="node state regular">
<title>second.thang</title>
<polygon fill="#ffffff" fill-opacity="0.003922" stroke="transparent" stroke-width="2" points="248,-163 154,-163 154,-127 248,-127 248,-163"/>
<text text-anchor="start" x="164.982" y="-141.2" font-family="Helvetica,sans-Serif" font-size="12.00" fill="#000000">second.thang</text>
<path fill="none" stroke="#000000" stroke-width="2" d="M166.3333,-128C166.3333,-128 235.6667,-128 235.6667,-128 241.3333,-128 247,-133.6667 247,-139.3333 247,-139.3333 247,-150.6667 247,-150.6667 247,-156.3333 241.3333,-162 235.6667,-162 235.6667,-162 166.3333,-162 166.3333,-162 160.6667,-162 155,-156.3333 155,-150.6667 155,-150.6667 155,-139.3333 155,-139.3333 155,-133.6667 160.6667,-128 166.3333,-128"/>
</g>
<!-- second.thing&#45;&gt;second.thang -->
<g id="edge8" class="edge transition">
<title>second.thing&#45;&gt;second.thang</title>
<path fill="none" stroke="#000000" d="M190.4066,-244.9638C188.4832,-239.4811 187,-233.3552 187,-227.5 187,-227.5 187,-227.5 187,-180.5 187,-178.0404 187.2944,-175.5476 187.7979,-173.083"/>
<polygon fill="#000000" stroke="#000000" points="191.2226,-173.8544 190.8256,-163.267 184.5336,-171.7911 191.2226,-173.8544"/>
<text text-anchor="middle" x="188.3895" y="-201" font-family="Helvetica,sans-Serif" font-size="10.00" fill="#000000"> </text>
</g>
<!-- second.thang&#45;&gt;]merge -->
<g id="edge5" class="edge transition">
<title>second.thang&#45;&gt;]merge</title>
<path fill="none" stroke="#000000" d="M187.612,-126.8468C176.6686,-112.0082 161.458,-91.3837 151.6705,-78.1125"/>
<polygon fill="#000000" stroke="#000000" points="154.3929,-75.9071 145.6406,-69.9365 148.7593,-80.0619 154.3929,-75.9071"/>
<text text-anchor="middle" x="170.3895" y="-94" font-family="Helvetica,sans-Serif" font-size="10.00" fill="#000000"> </text>
</g>
<!-- second.thang&#45;&gt;second.thing -->
<g id="edge9" class="edge transition">
<title>second.thang&#45;&gt;second.thing</title>
<path fill="none" stroke="#000000" d="M226.6762,-163.1018C230.9365,-168.077 234,-173.9365 234,-180.5 234,-227.5 234,-227.5 234,-227.5 234,-230.5833 233.3222,-233.496 232.1553,-236.2257"/>
<polygon fill="#000000" stroke="#000000" points="229.1052,-234.4955 226.5774,-244.7844 234.9697,-238.3176 229.1052,-234.4955"/>
<text text-anchor="middle" x="235.3895" y="-201" font-family="Helvetica,sans-Serif" font-size="10.00" fill="#000000"> </text>
</g>
</g>
</svg>
