<?xml version="1.0" encoding="UTF-8" standalone="no"?>
<svg
   width="774mm"
   height="515mm"
   viewBox="0 0 774 515"
   version="1.1"
   preserveAspectRatio="xMidYMid"
   id="svg34"
   xmlns="http://www.w3.org/2000/svg"
   xmlns:svg="http://www.w3.org/2000/svg">
  <defs
     id="defs38" />
  <g
     id="svgGroup"
     stroke-linecap="round"
     fill-rule="evenodd"
     font-size="12px"
     stroke="#000"
     stroke-width="0.25mm"
     fill="none"
     style="fill:none;stroke:#000000;stroke-width:0.25mm">
    <path
       d="m 0,479 v 11.905 h 3 v 12.19 H 0 V 515 h 12.195 v -3 h 12.19 v 3 h 12.19 v -3 h 12.19 v 3 h 12.19 v -3 h 12.19 v 3 h 12.19 v -3 h 12.19 v 3 h 12.19 v -3 h 12.19 v 3 h 12.19 v -3 h 12.19 v 3 h 12.19 v -3 h 12.19 v 3 h 12.19 v -3 h 12.19 v 3 h 12.19 v -3 h 12.19 v 3 h 12.19 v -3 h 12.19 v 3 H 256 v -11.905 h -3 v -12.19 h 3 V 479 h -12.195 v 3 h -12.19 v -3 h -12.19 v 3 h -12.19 v -3 h -12.19 v 3 h -12.19 v -3 h -12.19 v 3 h -12.19 v -3 h -12.19 v 3 h -12.19 v -3 h -12.19 v 3 h -12.19 v -3 h -12.19 v 3 h -12.19 v -3 h -12.19 v 3 h -12.19 v -3 h -12.19 v 3 h -12.19 v -3 h -12.19 v 3 h -12.19 v -3 z"
       id="front_outsideCutPath"
       stroke="#FF0000"
       stroke-width="0.1"
       style="stroke:#ff0000;stroke-width:0.1"
       vector-effect="non-scaling-stroke" />
    <path
       d="m 133.247,499.719 h -0.584 v -2.492 a 1.65,1.65 0 0 0 -0.018,-0.259 q -0.045,-0.281 -0.196,-0.444 a 0.658,0.658 0 0 0 -0.27,-0.173 q -0.169,-0.059 -0.401,-0.059 -0.399,0 -0.657,0.141 a 0.823,0.823 0 0 0 -0.229,0.185 0.954,0.954 0 0 0 -0.166,0.29 q -0.1,0.266 -0.114,0.663 a 3.739,3.739 0 0 0 -0.002,0.127 v 2.021 h -0.583 v -3.853 h 0.474 l 0.095,0.527 h 0.028 a 1.182,1.182 0 0 1 0.463,-0.421 1.421,1.421 0 0 1 0.04,-0.02 1.58,1.58 0 0 1 0.563,-0.15 1.911,1.911 0 0 1 0.158,-0.006 2.304,2.304 0 0 1 0.392,0.031 q 0.411,0.071 0.656,0.305 a 1.011,1.011 0 0 1 0.246,0.386 q 0.059,0.16 0.085,0.357 a 2.547,2.547 0 0 1 0.02,0.331 z m -11.211,-3.853 v 0.454 h -0.981 v 3.399 h -0.584 v -3.399 h -0.689 v -0.264 l 0.689,-0.211 v -0.214 a 2.365,2.365 0 0 1 0.056,-0.536 q 0.17,-0.731 0.869,-0.858 a 1.774,1.774 0 0 1 0.316,-0.027 1.879,1.879 0 0 1 0.266,0.021 q 0.13,0.018 0.274,0.054 a 3.778,3.778 0 0 1 0.177,0.048 l -0.151,0.468 a 2.834,2.834 0 0 0 -0.22,-0.062 q -0.111,-0.026 -0.209,-0.038 a 1.255,1.255 0 0 0 -0.147,-0.009 0.787,0.787 0 0 0 -0.19,0.021 0.505,0.505 0 0 0 -0.299,0.199 q -0.158,0.219 -0.158,0.705 v 0.249 z m 14.182,3.372 v 0.446 q -0.095,0.046 -0.28,0.076 -0.184,0.03 -0.332,0.03 -0.892,0 -1.072,-0.75 a 1.834,1.834 0 0 1 -0.046,-0.428 v -2.292 h -0.552 v -0.282 l 0.552,-0.242 0.246,-0.823 h 0.338 v 0.893 h 1.118 v 0.454 h -1.118 v 2.267 q 0,0.245 0.081,0.409 a 0.566,0.566 0 0 0 0.084,0.126 0.542,0.542 0 0 0 0.333,0.177 0.78,0.78 0 0 0 0.12,0.009 1.917,1.917 0 0 0 0.281,-0.02 1.76,1.76 0 0 0 0.018,-0.003 3.157,3.157 0 0 0 0.085,-0.014 q 0.086,-0.016 0.144,-0.033 z m -11.261,-3.4 -0.081,0.541 a 2.572,2.572 0 0 0 -0.185,-0.034 q -0.128,-0.018 -0.237,-0.018 a 1.011,1.011 0 0 0 -0.747,0.322 1.383,1.383 0 0 0 -0.052,0.057 1.333,1.333 0 0 0 -0.322,0.749 1.771,1.771 0 0 0 -0.011,0.197 v 2.067 h -0.583 v -3.853 h 0.482 l 0.066,0.714 h 0.028 a 1.971,1.971 0 0 1 0.221,-0.315 1.505,1.505 0 0 1 0.296,-0.265 1.163,1.163 0 0 1 0.665,-0.204 q 0.256,0 0.46,0.042 z m 3.572,3.422 a 1.628,1.628 0 0 0 0.194,-0.266 q 0.281,-0.48 0.281,-1.205 a 3.425,3.425 0 0 0 -0.002,-0.092 q -0.023,-0.853 -0.475,-1.363 a 1.528,1.528 0 0 0 -0.709,-0.458 1.961,1.961 0 0 0 -0.576,-0.08 2.267,2.267 0 0 0 -0.407,0.035 1.544,1.544 0 0 0 -0.9,0.49 q -0.313,0.349 -0.418,0.882 a 3.03,3.03 0 0 0 -0.054,0.586 2.919,2.919 0 0 0 0.037,0.473 2.159,2.159 0 0 0 0.181,0.589 1.918,1.918 0 0 0 0.043,0.083 1.58,1.58 0 0 0 0.576,0.613 1.625,1.625 0 0 0 0.373,0.166 1.874,1.874 0 0 0 0.545,0.077 2.266,2.266 0 0 0 0.396,-0.033 1.556,1.556 0 0 0 0.915,-0.497 z m -2.336,-0.661 a 1.224,1.224 0 0 0 0.17,0.315 0.957,0.957 0 0 0 0.623,0.367 1.449,1.449 0 0 0 0.246,0.02 1.356,1.356 0 0 0 0.357,-0.045 0.943,0.943 0 0 0 0.513,-0.34 1.253,1.253 0 0 0 0.195,-0.38 q 0.057,-0.176 0.083,-0.39 a 3.074,3.074 0 0 0 0.019,-0.357 q 0,-0.471 -0.122,-0.797 a 1.202,1.202 0 0 0 -0.175,-0.319 0.96,0.96 0 0 0 -0.597,-0.356 1.472,1.472 0 0 0 -0.28,-0.025 1.389,1.389 0 0 0 -0.346,0.04 0.929,0.929 0 0 0 -0.519,0.336 1.207,1.207 0 0 0 -0.188,0.362 q -0.104,0.314 -0.104,0.759 0,0.479 0.125,0.81 z"
       id="front_labelLayer"
       stroke="#777777"
       fill="#777777"
       style="fill:#777777;stroke:#777777"
       vector-effect="non-scaling-stroke" />
    <path
       d="m 262,479 v 11.905 h -3 v 12.19 h 3 V 515 h 9.195 v -3 h 12.19 v 3 h 12.19 v -3 h 12.19 v 3 h 12.19 v -3 h 12.19 v 3 h 12.19 v -3 h 12.19 v 3 h 12.19 v -3 h 12.19 v 3 h 12.19 v -3 h 12.19 v 3 h 12.19 v -3 h 12.19 v 3 h 12.19 v -3 h 12.19 v 3 h 12.19 v -3 h 12.19 v 3 h 12.19 v -3 h 12.19 v 3 H 512 v -11.905 h 3 v -12.19 h -3 V 479 h -9.195 v 3 h -12.19 v -3 h -12.19 v 3 h -12.19 v -3 h -12.19 v 3 h -12.19 v -3 h -12.19 v 3 h -12.19 v -3 h -12.19 v 3 h -12.19 v -3 h -12.19 v 3 h -12.19 v -3 h -12.19 v 3 h -12.19 v -3 h -12.19 v 3 h -12.19 v -3 h -12.19 v 3 h -12.19 v -3 h -12.19 v 3 h -12.19 v -3 z"
       id="left_outsideCutPath"
       stroke="#FF0000"
       stroke-width="0.1"
       style="stroke:#ff0000;stroke-width:0.1"
       vector-effect="non-scaling-stroke" />
    <path
       d="m 389.561,495.866 v 0.454 h -0.981 v 3.399 h -0.583 v -3.399 h -0.689 v -0.264 l 0.689,-0.211 v -0.214 a 2.365,2.365 0 0 1 0.055,-0.536 q 0.171,-0.731 0.87,-0.858 a 1.774,1.774 0 0 1 0.316,-0.027 1.879,1.879 0 0 1 0.266,0.021 q 0.129,0.018 0.273,0.054 a 3.778,3.778 0 0 1 0.178,0.048 l -0.151,0.468 a 2.834,2.834 0 0 0 -0.221,-0.062 q -0.111,-0.026 -0.209,-0.038 a 1.255,1.255 0 0 0 -0.147,-0.009 0.787,0.787 0 0 0 -0.19,0.021 0.505,0.505 0 0 0 -0.299,0.199 q -0.158,0.219 -0.158,0.705 v 0.249 z m -2.732,1.663 v 0.369 h -2.654 a 2.342,2.342 0 0 0 0.041,0.392 q 0.042,0.214 0.127,0.383 a 1.096,1.096 0 0 0 0.175,0.255 1.06,1.06 0 0 0 0.557,0.314 1.607,1.607 0 0 0 0.359,0.038 3.082,3.082 0 0 0 1.154,-0.229 3.532,3.532 0 0 0 0.076,-0.031 v 0.52 q -0.309,0.134 -0.585,0.192 -0.276,0.058 -0.666,0.058 -0.855,0 -1.349,-0.521 -0.465,-0.49 -0.492,-1.339 a 3.334,3.334 0 0 1 -10e-4,-0.106 q 0,-0.759 0.304,-1.264 a 1.728,1.728 0 0 1 0.154,-0.216 1.495,1.495 0 0 1 1.09,-0.543 2.063,2.063 0 0 1 0.143,-0.005 1.778,1.778 0 0 1 0.5,0.067 1.353,1.353 0 0 1 0.646,0.409 1.632,1.632 0 0 1 0.369,0.746 2.375,2.375 0 0 1 0.052,0.511 z m 5.207,1.709 v 0.446 q -0.095,0.046 -0.279,0.076 -0.185,0.03 -0.333,0.03 -0.891,0 -1.072,-0.75 a 1.834,1.834 0 0 1 -0.046,-0.428 v -2.292 h -0.552 v -0.282 l 0.552,-0.242 0.247,-0.823 h 0.337 v 0.893 h 1.118 v 0.454 h -1.118 v 2.267 q 0,0.245 0.082,0.409 a 0.566,0.566 0 0 0 0.083,0.126 0.542,0.542 0 0 0 0.334,0.177 0.78,0.78 0 0 0 0.12,0.009 1.917,1.917 0 0 0 0.281,-0.02 1.76,1.76 0 0 0 0.018,-0.003 3.157,3.157 0 0 0 0.084,-0.014 q 0.086,-0.016 0.144,-0.033 z m -9.489,-4.989 v 5.47 h -0.583 v -5.47 z m 1.642,3.175 h 2.015 q 0,-0.374 -0.113,-0.629 a 0.903,0.903 0 0 0 -0.133,-0.217 0.8,0.8 0 0 0 -0.482,-0.274 1.199,1.199 0 0 0 -0.222,-0.02 1.15,1.15 0 0 0 -0.332,0.046 0.889,0.889 0 0 0 -0.408,0.257 q -0.249,0.273 -0.313,0.737 a 2.205,2.205 0 0 0 -0.012,0.1 z"
       id="left_labelLayer"
       stroke="#777777"
       fill="#777777"
       style="fill:#777777;stroke:#777777"
       vector-effect="non-scaling-stroke" />
    <path
       d="m 521,262 v 9.195 h -3 v 12.19 h 3 v 12.19 h -3 v 12.19 h 3 v 12.19 h -3 v 12.19 h 3 v 12.19 h -3 v 12.19 h 3 v 12.19 h -3 v 12.19 h 3 v 12.19 h -3 v 12.19 h 3 v 12.19 h -3 v 12.19 h 3 v 12.19 h -3 v 12.19 h 3 v 12.19 h -3 v 12.19 h 3 v 12.19 h -3 v 12.19 h 3 V 512 h 9.195 v 3 h 12.19 v -3 h 12.19 v 3 h 12.19 v -3 h 12.19 v 3 h 12.19 v -3 h 12.19 v 3 h 12.19 v -3 h 12.19 v 3 h 12.19 v -3 h 12.19 v 3 h 12.19 v -3 h 12.19 v 3 h 12.19 v -3 h 12.19 v 3 h 12.19 v -3 h 12.19 v 3 h 12.19 v -3 h 12.19 v 3 h 12.19 v -3 H 771 v -9.195 h 3 v -12.19 h -3 v -12.19 h 3 v -12.19 h -3 v -12.19 h 3 v -12.19 h -3 v -12.19 h 3 v -12.19 h -3 v -12.19 h 3 v -12.19 h -3 v -12.19 h 3 v -12.19 h -3 v -12.19 h 3 v -12.19 h -3 v -12.19 h 3 v -12.19 h -3 v -12.19 h 3 v -12.19 h -3 v -12.19 h 3 v -12.19 h -3 V 262 h -9.195 v -3 h -12.19 v 3 h -12.19 v -3 h -12.19 v 3 h -12.19 v -3 h -12.19 v 3 h -12.19 v -3 h -12.19 v 3 h -12.19 v -3 h -12.19 v 3 h -12.19 v -3 h -12.19 v 3 h -12.19 v -3 h -12.19 v 3 h -12.19 v -3 h -12.19 v 3 h -12.19 v -3 h -12.19 v 3 h -12.19 v -3 h -12.19 v 3 z"
       id="top_outsideCutPath"
       stroke="#FF0000"
       stroke-width="0.1"
       style="stroke:#ff0000;stroke-width:0.1"
       vector-effect="non-scaling-stroke" />
    <path
       d="m 664.4,394.2 h -0.3 a 39.274,39.274 0 0 1 0.258,2.902 32.91,32.91 0 0 1 0.042,1.648 v 11.275 h -4.15 v -39.7 h 3.375 l 0.575,3.75 h 0.2 a 11.171,11.171 0 0 1 1.615,-1.835 8.638,8.638 0 0 1 2.11,-1.415 10.393,10.393 0 0 1 2.979,-0.871 13.452,13.452 0 0 1 1.896,-0.129 12.721,12.721 0 0 1 3.593,0.48 9.402,9.402 0 0 1 4.819,3.245 q 2.963,3.725 2.963,10.45 a 24.332,24.332 0 0 1 -0.323,4.094 q -0.373,2.182 -1.177,3.932 a 11.665,11.665 0 0 1 -1.513,2.461 9.824,9.824 0 0 1 -6.982,3.672 14.075,14.075 0 0 1 -1.38,0.066 12.588,12.588 0 0 1 -3.163,-0.386 10.953,10.953 0 0 1 -1.725,-0.602 Q 665.9,396.25 664.4,394.2 Z m -40.55,0.1 v 3.175 a 4.082,4.082 0 0 1 -0.484,0.192 q -0.601,0.199 -1.504,0.346 -1.312,0.212 -2.362,0.212 a 10.839,10.839 0 0 1 -3.194,-0.43 q -3.512,-1.083 -4.43,-4.898 a 13.045,13.045 0 0 1 -0.326,-3.047 v -16.3 h -3.925 v -2 l 3.925,-1.725 1.75,-5.85 h 2.4 v 6.35 h 7.95 v 3.225 h -7.95 v 16.125 a 8.357,8.357 0 0 0 0.12,1.468 q 0.144,0.805 0.46,1.442 a 4.025,4.025 0 0 0 0.595,0.89 3.855,3.855 0 0 0 2.37,1.262 5.547,5.547 0 0 0 0.855,0.063 13.629,13.629 0 0 0 1.996,-0.143 12.562,12.562 0 0 0 0.129,-0.02 q 1.025,-0.162 1.625,-0.337 z m 25.75,0.163 a 11.577,11.577 0 0 0 1.378,-1.894 q 1.997,-3.416 1.997,-8.569 a 24.356,24.356 0 0 0 -0.009,-0.659 q -0.164,-6.061 -3.379,-9.691 a 10.864,10.864 0 0 0 -5.043,-3.253 13.945,13.945 0 0 0 -4.094,-0.572 16.118,16.118 0 0 0 -2.895,0.248 10.977,10.977 0 0 0 -6.405,3.489 11.465,11.465 0 0 0 -1.408,1.953 q -1.085,1.891 -1.564,4.318 A 21.548,21.548 0 0 0 627.8,384 a 20.761,20.761 0 0 0 0.261,3.363 15.352,15.352 0 0 0 1.289,4.187 q 1.55,3.225 4.4,4.95 a 11.556,11.556 0 0 0 2.652,1.179 13.327,13.327 0 0 0 3.873,0.546 q 5.95,0 9.325,-3.762 z M 632.1,384 q 0,5.25 2.1,8 a 6.802,6.802 0 0 0 4.43,2.609 10.307,10.307 0 0 0 1.745,0.141 q 4.075,0 6.187,-2.737 1.571,-2.036 1.974,-5.475 a 21.86,21.86 0 0 0 0.139,-2.538 20.707,20.707 0 0 0 -0.196,-2.951 q -0.217,-1.502 -0.673,-2.719 a 8.545,8.545 0 0 0 -1.244,-2.268 6.827,6.827 0 0 0 -4.244,-2.532 10.467,10.467 0 0 0 -1.993,-0.18 q -4.075,0 -6.15,2.675 a 8.581,8.581 0 0 0 -1.334,2.577 Q 632.1,380.832 632.1,384 Z m 32.3,-0.925 V 384 q 0,5.775 1.925,8.263 a 6.021,6.021 0 0 0 3.054,2.061 q 1.021,0.319 2.266,0.399 a 13.344,13.344 0 0 0 0.855,0.027 6.993,6.993 0 0 0 2.719,-0.511 q 1.679,-0.7 2.843,-2.364 2.013,-2.875 2.013,-7.925 a 20.942,20.942 0 0 0 -0.197,-2.97 q -0.432,-3.01 -1.816,-4.892 a 6.456,6.456 0 0 0 -4.722,-2.69 8.929,8.929 0 0 0 -0.94,-0.048 11.958,11.958 0 0 0 -2.234,0.194 q -1.244,0.237 -2.199,0.764 a 5.484,5.484 0 0 0 -1.642,1.367 q -1.875,2.325 -1.925,7.4 z"
       id="top_labelLayer"
       stroke="#777777"
       fill="#777777"
       style="fill:#777777;stroke:#777777"
       vector-effect="non-scaling-stroke" />
    <path
       d="m 0,440 v 11.905 h 3 v 12.19 H 0 V 476 h 12.195 v -3 h 12.19 v 3 h 12.19 v -3 h 12.19 v 3 h 12.19 v -3 h 12.19 v 3 h 12.19 v -3 h 12.19 v 3 h 12.19 v -3 h 12.19 v 3 h 12.19 v -3 h 12.19 v 3 h 12.19 v -3 h 12.19 v 3 h 12.19 v -3 h 12.19 v 3 h 12.19 v -3 h 12.19 v 3 h 12.19 v -3 h 12.19 v 3 H 256 v -11.905 h -3 v -12.19 h 3 V 440 h -12.195 v 3 h -12.19 v -3 h -12.19 v 3 h -12.19 v -3 h -12.19 v 3 h -12.19 v -3 h -12.19 v 3 h -12.19 v -3 h -12.19 v 3 h -12.19 v -3 h -12.19 v 3 h -12.19 v -3 h -12.19 v 3 h -12.19 v -3 h -12.19 v 3 h -12.19 v -3 h -12.19 v 3 h -12.19 v -3 h -12.19 v 3 h -12.19 v -3 z"
       id="back_outsideCutPath"
       stroke="#FF0000"
       stroke-width="0.1"
       style="stroke:#ff0000;stroke-width:0.1"
       vector-effect="non-scaling-stroke" />
    <path
       d="m 132.929,458.728 h 0.028 a 3.455,3.455 0 0 1 0.086,-0.116 q 0.098,-0.128 0.238,-0.291 a 12.539,12.539 0 0 1 0.137,-0.156 l 1.244,-1.318 h 0.693 l -1.561,1.642 1.67,2.211 h -0.707 l -1.361,-1.821 -0.439,0.38 v 1.441 h -0.577 v -5.47 h 0.577 v 2.9 q 0,0.19 -0.027,0.583 a 24.478,24.478 0 0 1 -0.001,0.015 z m -11.809,1.476 h -0.042 l -0.123,0.496 h -0.419 v -5.47 h 0.584 v 1.329 q 0,0.432 -0.026,0.778 a 7.282,7.282 0 0 1 -0.002,0.023 h 0.028 q 0.408,-0.576 1.209,-0.576 a 1.784,1.784 0 0 1 0.502,0.067 1.335,1.335 0 0 1 0.678,0.451 1.72,1.72 0 0 1 0.301,0.581 q 0.119,0.383 0.119,0.887 0,0.949 -0.424,1.475 a 1.382,1.382 0 0 1 -0.982,0.516 1.979,1.979 0 0 1 -0.194,0.009 1.77,1.77 0 0 1 -0.445,-0.054 1.54,1.54 0 0 1 -0.242,-0.085 1.293,1.293 0 0 1 -0.522,-0.427 z m 6.63,0.496 h -0.432 l -0.116,-0.548 h -0.028 a 2.419,2.419 0 0 1 -0.196,0.219 q -0.105,0.103 -0.21,0.175 a 1.075,1.075 0 0 1 -0.169,0.096 q -0.286,0.128 -0.715,0.128 -0.573,0 -0.899,-0.295 a 0.959,0.959 0 0 1 -0.289,-0.506 1.468,1.468 0 0 1 -0.036,-0.334 q 0,-1.13 1.748,-1.219 a 5.7,5.7 0 0 1 0.119,-0.005 l 0.654,-0.021 v -0.239 q 0,-0.453 -0.195,-0.67 a 0.592,0.592 0 0 0 -0.243,-0.158 q -0.097,-0.035 -0.217,-0.049 a 1.442,1.442 0 0 0 -0.164,-0.009 q -0.387,0 -0.857,0.191 a 3.908,3.908 0 0 0 -0.233,0.105 l -0.179,-0.447 a 2.691,2.691 0 0 1 0.519,-0.213 3.063,3.063 0 0 1 0.105,-0.03 q 0.339,-0.087 0.68,-0.087 a 2.465,2.465 0 0 1 0.375,0.026 q 0.412,0.064 0.646,0.279 a 0.924,0.924 0 0 1 0.239,0.368 q 0.093,0.255 0.093,0.613 z m 3.773,-3.723 -0.18,0.496 a 2.596,2.596 0 0 0 -0.281,-0.094 3.101,3.101 0 0 0 -0.141,-0.035 q -0.228,-0.051 -0.404,-0.051 a 1.294,1.294 0 0 0 -0.526,0.099 q -0.551,0.243 -0.633,1.083 a 3.225,3.225 0 0 0 -0.015,0.316 q 0,0.466 0.123,0.79 a 1.21,1.21 0 0 0 0.163,0.3 0.927,0.927 0 0 0 0.601,0.359 1.412,1.412 0 0 0 0.249,0.021 2.443,2.443 0 0 0 0.673,-0.099 3.016,3.016 0 0 0 0.314,-0.109 v 0.517 q -0.332,0.172 -0.812,0.196 a 3.2,3.2 0 0 1 -0.161,0.004 2.181,2.181 0 0 1 -0.531,-0.061 1.479,1.479 0 0 1 -0.765,-0.454 1.688,1.688 0 0 1 -0.351,-0.644 q -0.077,-0.256 -0.099,-0.564 a 3.529,3.529 0 0 1 -0.009,-0.249 3.22,3.22 0 0 1 0.05,-0.586 q 0.061,-0.326 0.194,-0.584 a 1.609,1.609 0 0 1 0.222,-0.324 1.511,1.511 0 0 1 0.828,-0.476 2.291,2.291 0 0 1 0.499,-0.051 q 0.278,0 0.556,0.059 a 2.913,2.913 0 0 1 0.162,0.04 q 0.162,0.045 0.27,0.099 a 0.847,0.847 0 0 1 0.004,0.002 z m -9.278,0.295 a 1.64,1.64 0 0 0 -0.318,0.029 q -0.181,0.036 -0.318,0.116 a 0.776,0.776 0 0 0 -0.225,0.198 0.999,0.999 0 0 0 -0.145,0.275 q -0.098,0.274 -0.115,0.69 a 4.496,4.496 0 0 0 -0.004,0.19 3.859,3.859 0 0 0 0.019,0.399 q 0.042,0.402 0.176,0.647 a 0.88,0.88 0 0 0 0.076,0.116 q 0.242,0.313 0.748,0.346 a 1.876,1.876 0 0 0 0.12,0.004 1.163,1.163 0 0 0 0.33,-0.045 0.839,0.839 0 0 0 0.472,-0.347 q 0.188,-0.28 0.242,-0.735 a 3.344,3.344 0 0 0 0.021,-0.392 q 0,-0.713 -0.237,-1.082 a 0.968,0.968 0 0 0 -0.026,-0.04 0.851,0.851 0 0 0 -0.542,-0.343 1.35,1.35 0 0 0 -0.274,-0.026 z m 4.922,1.881 v -0.348 l -0.584,0.025 a 4.285,4.285 0 0 0 -0.342,0.025 q -0.338,0.039 -0.549,0.132 a 0.896,0.896 0 0 0 -0.113,0.059 0.623,0.623 0 0 0 -0.296,0.452 0.922,0.922 0 0 0 -0.011,0.144 0.834,0.834 0 0 0 0.021,0.191 q 0.034,0.147 0.127,0.248 a 0.52,0.52 0 0 0 0.043,0.042 0.635,0.635 0 0 0 0.238,0.127 q 0.132,0.039 0.299,0.039 a 1.607,1.607 0 0 0 0.347,-0.036 q 0.241,-0.053 0.42,-0.188 a 0.974,0.974 0 0 0 0.089,-0.075 q 0.311,-0.299 0.311,-0.837 z"
       id="back_labelLayer"
       stroke="#777777"
       fill="#777777"
       style="fill:#777777;stroke:#777777"
       vector-effect="non-scaling-stroke" />
    <path
       d="m 262,440 v 11.905 h -3 v 12.19 h 3 V 476 h 9.195 v -3 h 12.19 v 3 h 12.19 v -3 h 12.19 v 3 h 12.19 v -3 h 12.19 v 3 h 12.19 v -3 h 12.19 v 3 h 12.19 v -3 h 12.19 v 3 h 12.19 v -3 h 12.19 v 3 h 12.19 v -3 h 12.19 v 3 h 12.19 v -3 h 12.19 v 3 h 12.19 v -3 h 12.19 v 3 h 12.19 v -3 h 12.19 v 3 H 512 v -11.905 h 3 v -12.19 h -3 V 440 h -9.195 v 3 h -12.19 v -3 h -12.19 v 3 h -12.19 v -3 h -12.19 v 3 h -12.19 v -3 h -12.19 v 3 h -12.19 v -3 h -12.19 v 3 h -12.19 v -3 h -12.19 v 3 h -12.19 v -3 h -12.19 v 3 h -12.19 v -3 h -12.19 v 3 h -12.19 v -3 h -12.19 v 3 h -12.19 v -3 h -12.19 v 3 h -12.19 v -3 z"
       id="right_outsideCutPath"
       stroke="#FF0000"
       stroke-width="0.1"
       style="stroke:#ff0000;stroke-width:0.1"
       vector-effect="non-scaling-stroke" />
    <path
       d="m 391.477,459.87 h -0.583 v -2.492 a 1.65,1.65 0 0 0 -0.019,-0.259 q -0.045,-0.281 -0.196,-0.444 a 0.658,0.658 0 0 0 -0.27,-0.173 q -0.169,-0.059 -0.401,-0.059 a 1.766,1.766 0 0 0 -0.331,0.028 q -0.36,0.069 -0.557,0.302 a 0.971,0.971 0 0 0 -0.165,0.292 q -0.099,0.268 -0.113,0.665 a 3.766,3.766 0 0 0 -0.002,0.126 v 2.014 h -0.583 v -5.47 h 0.583 v 1.656 a 5.25,5.25 0 0 1 -0.003,0.201 q -0.004,0.095 -0.011,0.176 a 2.283,2.283 0 0 1 -0.014,0.119 h 0.035 a 1.166,1.166 0 0 1 0.409,-0.394 1.425,1.425 0 0 1 0.082,-0.044 1.498,1.498 0 0 1 0.492,-0.146 1.894,1.894 0 0 1 0.234,-0.014 2.368,2.368 0 0 1 0.398,0.031 q 0.211,0.036 0.379,0.114 a 1.052,1.052 0 0 1 0.283,0.191 1.016,1.016 0 0 1 0.25,0.393 q 0.061,0.164 0.086,0.367 a 2.524,2.524 0 0 1 0.017,0.307 z m -5.344,-3.853 h 1.333 v 0.369 l -0.714,0.085 a 0.948,0.948 0 0 1 0.082,0.122 q 0.036,0.063 0.069,0.138 a 1.799,1.799 0 0 1 0.025,0.061 1.123,1.123 0 0 1 0.066,0.269 1.442,1.442 0 0 1 0.011,0.18 1.338,1.338 0 0 1 -0.061,0.414 1.082,1.082 0 0 1 -0.325,0.489 1.294,1.294 0 0 1 -0.51,0.268 q -0.192,0.054 -0.421,0.066 a 2.535,2.535 0 0 1 -0.131,0.004 1.876,1.876 0 0 1 -0.217,-0.012 1.584,1.584 0 0 1 -0.107,-0.017 q -0.212,0.113 -0.304,0.259 a 0.439,0.439 0 0 0 -0.068,0.237 0.302,0.302 0 0 0 0.015,0.099 q 0.028,0.081 0.107,0.13 a 0.324,0.324 0 0 0 0.008,0.005 q 0.105,0.061 0.33,0.073 a 2.22,2.22 0 0 0 0.116,0.003 h 0.682 a 2.389,2.389 0 0 1 0.363,0.025 q 0.19,0.03 0.343,0.092 a 1.055,1.055 0 0 1 0.256,0.146 0.854,0.854 0 0 1 0.317,0.544 1.282,1.282 0 0 1 0.019,0.223 1.264,1.264 0 0 1 -0.073,0.437 q -0.116,0.318 -0.421,0.525 a 1.388,1.388 0 0 1 -0.02,0.013 1.75,1.75 0 0 1 -0.451,0.205 q -0.431,0.131 -1.046,0.131 -0.496,0 -0.843,-0.121 a 1.356,1.356 0 0 1 -0.323,-0.16 q -0.383,-0.263 -0.408,-0.729 a 1.232,1.232 0 0 1 -10e-4,-0.066 0.892,0.892 0 0 1 0.225,-0.608 1.019,1.019 0 0 1 0.35,-0.255 1.444,1.444 0 0 1 0.282,-0.093 0.606,0.606 0 0 1 -0.235,-0.19 0.719,0.719 0 0 1 -0.012,-0.017 q -0.101,-0.141 -0.101,-0.327 a 0.667,0.667 0 0 1 0.034,-0.215 0.591,0.591 0 0 1 0.079,-0.155 0.835,0.835 0 0 1 0.11,-0.124 q 0.059,-0.055 0.134,-0.109 a 1.833,1.833 0 0 1 0.111,-0.072 1.023,1.023 0 0 1 -0.444,-0.356 1.268,1.268 0 0 1 -0.043,-0.063 1.206,1.206 0 0 1 -0.185,-0.581 1.472,1.472 0 0 1 -0.003,-0.094 1.686,1.686 0 0 1 0.044,-0.398 1.109,1.109 0 0 1 0.336,-0.577 q 0.328,-0.296 0.892,-0.337 a 2.578,2.578 0 0 1 0.183,-0.006 2.237,2.237 0 0 1 0.296,0.019 1.704,1.704 0 0 1 0.249,0.051 z m 8.315,3.372 v 0.446 q -0.095,0.046 -0.28,0.076 -0.184,0.03 -0.332,0.03 -0.892,0 -1.072,-0.75 a 1.834,1.834 0 0 1 -0.046,-0.428 v -2.292 h -0.552 v -0.282 l 0.552,-0.242 0.246,-0.823 h 0.338 v 0.893 h 1.118 v 0.454 h -1.118 v 2.267 q 0,0.245 0.081,0.41 a 0.566,0.566 0 0 0 0.084,0.125 0.542,0.542 0 0 0 0.333,0.177 0.78,0.78 0 0 0 0.121,0.009 1.917,1.917 0 0 0 0.28,-0.02 1.76,1.76 0 0 0 0.018,-0.003 3.157,3.157 0 0 0 0.085,-0.014 q 0.086,-0.016 0.144,-0.033 z m -12.677,-3.4 -0.081,0.541 a 2.572,2.572 0 0 0 -0.185,-0.034 q -0.129,-0.018 -0.237,-0.018 a 1.011,1.011 0 0 0 -0.747,0.322 1.383,1.383 0 0 0 -0.053,0.057 1.333,1.333 0 0 0 -0.322,0.749 1.771,1.771 0 0 0 -0.01,0.197 v 2.067 h -0.584 v -3.853 h 0.482 l 0.067,0.714 h 0.028 a 1.971,1.971 0 0 1 0.22,-0.315 1.505,1.505 0 0 1 0.297,-0.265 1.163,1.163 0 0 1 0.664,-0.204 q 0.257,0 0.461,0.042 z m 1.304,0.028 v 3.853 h -0.584 v -3.853 z m 2.858,3.765 h -0.7 a 1.342,1.342 0 0 0 -0.241,0.021 q -0.138,0.025 -0.246,0.081 a 0.684,0.684 0 0 0 -0.131,0.088 0.615,0.615 0 0 0 -0.202,0.349 0.934,0.934 0 0 0 -0.02,0.196 0.586,0.586 0 0 0 0.039,0.218 q 0.055,0.14 0.19,0.234 a 0.685,0.685 0 0 0 0.035,0.023 q 0.264,0.161 0.756,0.161 a 3.923,3.923 0 0 0 0.383,-0.017 q 0.384,-0.038 0.625,-0.158 a 0.969,0.969 0 0 0 0.08,-0.044 0.851,0.851 0 0 0 0.197,-0.166 0.638,0.638 0 0 0 0.156,-0.43 0.79,0.79 0 0 0 -0.014,-0.157 q -0.039,-0.189 -0.179,-0.277 a 0.554,0.554 0 0 0 -0.131,-0.058 q -0.209,-0.064 -0.597,-0.064 z m -1.223,-2.531 a 1.139,1.139 0 0 0 0.023,0.239 q 0.032,0.148 0.107,0.259 a 0.624,0.624 0 0 0 0.098,0.114 q 0.206,0.187 0.557,0.205 a 1.503,1.503 0 0 0 0.079,0.002 q 0.855,0 0.855,-0.829 a 1.255,1.255 0 0 0 -0.043,-0.344 q -0.11,-0.385 -0.502,-0.488 a 1.269,1.269 0 0 0 -0.32,-0.037 1.225,1.225 0 0 0 -0.25,0.024 q -0.153,0.032 -0.269,0.106 a 0.672,0.672 0 0 0 -0.114,0.092 0.7,0.7 0 0 0 -0.169,0.285 q -0.036,0.111 -0.047,0.245 a 1.535,1.535 0 0 0 -0.005,0.127 z m -2.26,-2.385 a 0.647,0.647 0 0 0 -0.008,0.107 0.689,0.689 0 0 0 0.003,0.066 q 0.006,0.059 0.022,0.107 a 0.301,0.301 0 0 0 0.073,0.121 0.327,0.327 0 0 0 0.119,0.075 0.371,0.371 0 0 0 0.128,0.021 0.34,0.34 0 0 0 0.242,-0.096 q 0.071,-0.068 0.093,-0.183 a 0.604,0.604 0 0 0 0.009,-0.111 0.668,0.668 0 0 0 -0.003,-0.063 q -0.014,-0.15 -0.099,-0.229 -0.102,-0.095 -0.242,-0.095 a 0.445,0.445 0 0 0 -0.03,10e-4 0.337,0.337 0 0 0 -0.217,0.092 q -0.07,0.067 -0.09,0.187 z"
       id="right_labelLayer"
       stroke="#777777"
       fill="#777777"
       style="fill:#777777;stroke:#777777"
       vector-effect="non-scaling-stroke" />
    <path
       d="m 521,3 v 9.195 h -3 v 12.19 h 3 v 12.19 h -3 v 12.19 h 3 v 12.19 h -3 v 12.19 h 3 v 12.19 h -3 v 12.19 h 3 v 12.19 h -3 v 12.19 h 3 v 12.19 h -3 v 12.19 h 3 v 12.19 h -3 v 12.19 h 3 v 12.19 h -3 v 12.19 h 3 v 12.19 h -3 v 12.19 h 3 v 12.19 h -3 v 12.19 h 3 V 253 h 9.195 v 3 h 12.19 v -3 h 12.19 v 3 h 12.19 v -3 h 12.19 v 3 h 12.19 v -3 h 12.19 v 3 h 12.19 v -3 h 12.19 v 3 h 12.19 v -3 h 12.19 v 3 h 12.19 v -3 h 12.19 v 3 h 12.19 v -3 h 12.19 v 3 h 12.19 v -3 h 12.19 v 3 h 12.19 v -3 h 12.19 v 3 h 12.19 v -3 H 771 v -9.195 h 3 v -12.19 h -3 v -12.19 h 3 v -12.19 h -3 v -12.19 h 3 v -12.19 h -3 v -12.19 h 3 v -12.19 h -3 v -12.19 h 3 v -12.19 h -3 v -12.19 h 3 v -12.19 h -3 v -12.19 h 3 v -12.19 h -3 v -12.19 h 3 v -12.19 h -3 v -12.19 h 3 v -12.19 h -3 v -12.19 h 3 v -12.19 h -3 V 3 h -9.195 V 0 h -12.19 v 3 h -12.19 V 0 h -12.19 v 3 h -12.19 V 0 h -12.19 v 3 h -12.19 V 0 h -12.19 v 3 h -12.19 V 0 h -12.19 v 3 h -12.19 V 0 h -12.19 v 3 h -12.19 V 0 h -12.19 v 3 h -12.19 V 0 h -12.19 v 3 h -12.19 V 0 h -12.19 v 3 h -12.19 V 0 h -12.19 v 3 z"
       id="bottom_outsideCutPath"
       stroke="#FF0000"
       stroke-width="0.1"
       style="stroke:#ff0000;stroke-width:0.1"
       vector-effect="non-scaling-stroke" />
    <path
       d="m 730.225,147.199 h -4.15 v -17.825 a 12.243,12.243 0 0 0 -0.124,-1.8 q -0.136,-0.919 -0.426,-1.66 a 5.015,5.015 0 0 0 -0.85,-1.452 q -1.225,-1.433 -3.635,-1.612 a 9.633,9.633 0 0 0 -0.715,-0.026 10.679,10.679 0 0 0 -2.173,0.207 q -1.292,0.269 -2.266,0.887 a 5.496,5.496 0 0 0 -1.286,1.131 6.858,6.858 0 0 0 -1.163,2.105 q -0.687,1.927 -0.687,4.745 v 15.3 h -4.15 v -17.825 a 12.243,12.243 0 0 0 -0.124,-1.8 q -0.136,-0.919 -0.426,-1.66 a 5.015,5.015 0 0 0 -0.85,-1.452 4.353,4.353 0 0 0 -2.002,-1.301 q -1.025,-0.337 -2.373,-0.337 a 10.307,10.307 0 0 0 -2.132,0.206 q -2.306,0.488 -3.581,2.132 a 6.959,6.959 0 0 0 -1.032,1.96 q -0.78,2.208 -0.78,5.702 v 14.375 h -4.15 v -27.4 h 3.375 l 0.675,3.75 h 0.2 q 1.175,-2 3.312,-3.125 a 9.853,9.853 0 0 1 3.892,-1.091 11.9,11.9 0 0 1 0.896,-0.034 13.587,13.587 0 0 1 3.058,0.319 q 1.881,0.435 3.193,1.465 a 7.085,7.085 0 0 1 2.149,2.866 h 0.2 a 8.665,8.665 0 0 1 3.264,-3.24 10.411,10.411 0 0 1 0.286,-0.16 10.504,10.504 0 0 1 3.853,-1.172 13.097,13.097 0 0 1 1.447,-0.078 14.426,14.426 0 0 1 2.616,0.222 q 1.455,0.269 2.591,0.863 a 6.839,6.839 0 0 1 1.755,1.303 7.146,7.146 0 0 1 1.535,2.51 q 0.778,2.082 0.778,5.127 z m -164.3,-3.525 h -0.3 l -0.875,3.525 h -2.975 v -38.9 h 4.15 v 9.45 q 0,3.073 -0.187,5.537 a 51.821,51.821 0 0 1 -0.013,0.163 h 0.2 a 9.435,9.435 0 0 1 6.887,-4 14.174,14.174 0 0 1 1.713,-0.1 12.684,12.684 0 0 1 3.57,0.477 9.495,9.495 0 0 1 4.817,3.211 q 2.988,3.687 2.988,10.437 a 24.332,24.332 0 0 1 -0.323,4.094 q -0.373,2.182 -1.177,3.932 a 11.665,11.665 0 0 1 -1.513,2.462 9.824,9.824 0 0 1 -6.982,3.671 14.075,14.075 0 0 1 -1.38,0.066 12.588,12.588 0 0 1 -3.163,-0.385 10.953,10.953 0 0 1 -1.725,-0.602 q -2.212,-0.988 -3.712,-3.038 z m 70.75,0.1 v 3.175 a 4.082,4.082 0 0 1 -0.484,0.192 q -0.601,0.2 -1.504,0.346 -1.312,0.212 -2.362,0.212 a 10.839,10.839 0 0 1 -3.194,-0.43 q -3.511,-1.083 -4.43,-4.897 a 13.045,13.045 0 0 1 -0.326,-3.048 v -16.3 h -3.925 v -2 l 3.925,-1.725 1.75,-5.85 h 2.4 v 6.35 h 7.95 v 3.225 h -7.95 v 16.125 a 8.357,8.357 0 0 0 0.12,1.468 q 0.144,0.805 0.46,1.443 a 4.025,4.025 0 0 0 0.595,0.889 3.855,3.855 0 0 0 2.37,1.262 5.547,5.547 0 0 0 0.855,0.063 13.629,13.629 0 0 0 1.996,-0.142 12.562,12.562 0 0 0 0.129,-0.02 q 1.025,-0.163 1.625,-0.338 z m 18.075,0 v 3.175 a 4.082,4.082 0 0 1 -0.484,0.192 q -0.601,0.2 -1.504,0.346 -1.312,0.212 -2.362,0.212 a 10.839,10.839 0 0 1 -3.194,-0.43 q -3.511,-1.083 -4.43,-4.897 a 13.045,13.045 0 0 1 -0.326,-3.048 v -16.3 h -3.925 v -2 l 3.925,-1.725 1.75,-5.85 h 2.4 v 6.35 h 7.95 v 3.225 h -7.95 v 16.125 a 8.357,8.357 0 0 0 0.12,1.468 q 0.144,0.805 0.46,1.443 a 4.025,4.025 0 0 0 0.595,0.889 3.855,3.855 0 0 0 2.37,1.262 5.547,5.547 0 0 0 0.855,0.063 13.629,13.629 0 0 0 1.996,-0.142 12.562,12.562 0 0 0 0.129,-0.02 q 1.025,-0.163 1.625,-0.338 z m -41.325,0.163 a 11.577,11.577 0 0 0 1.378,-1.894 q 1.997,-3.415 1.997,-8.569 a 24.356,24.356 0 0 0 -0.009,-0.658 q -0.164,-6.062 -3.379,-9.692 a 10.864,10.864 0 0 0 -5.043,-3.253 13.945,13.945 0 0 0 -4.094,-0.572 16.118,16.118 0 0 0 -2.895,0.249 10.977,10.977 0 0 0 -6.405,3.489 11.465,11.465 0 0 0 -1.408,1.952 q -1.085,1.891 -1.564,4.318 a 21.548,21.548 0 0 0 -0.378,4.167 20.761,20.761 0 0 0 0.261,3.363 15.352,15.352 0 0 0 1.289,4.187 q 1.55,3.225 4.4,4.95 a 11.556,11.556 0 0 0 2.652,1.18 13.327,13.327 0 0 0 3.873,0.545 q 5.95,0 9.325,-3.762 z m 67.075,0 a 11.577,11.577 0 0 0 1.378,-1.894 q 1.997,-3.415 1.997,-8.569 a 24.356,24.356 0 0 0 -0.009,-0.658 q -0.164,-6.062 -3.379,-9.692 a 10.864,10.864 0 0 0 -5.043,-3.253 13.945,13.945 0 0 0 -4.094,-0.572 16.118,16.118 0 0 0 -2.895,0.249 10.977,10.977 0 0 0 -6.405,3.489 11.465,11.465 0 0 0 -1.408,1.952 q -1.085,1.891 -1.564,4.318 a 21.548,21.548 0 0 0 -0.378,4.167 20.761,20.761 0 0 0 0.261,3.363 15.352,15.352 0 0 0 1.289,4.187 q 1.55,3.225 4.4,4.95 a 11.556,11.556 0 0 0 2.652,1.18 13.327,13.327 0 0 0 3.873,0.545 q 5.95,0 9.325,-3.762 z m -84.575,-10.463 q 0,5.25 2.1,8 a 6.802,6.802 0 0 0 4.43,2.609 10.307,10.307 0 0 0 1.745,0.141 q 4.075,0 6.187,-2.737 1.571,-2.036 1.974,-5.475 a 21.86,21.86 0 0 0 0.139,-2.538 20.707,20.707 0 0 0 -0.196,-2.95 q -0.217,-1.502 -0.673,-2.719 a 8.545,8.545 0 0 0 -1.244,-2.268 6.827,6.827 0 0 0 -4.244,-2.532 10.467,10.467 0 0 0 -1.993,-0.181 q -4.075,0 -6.15,2.675 a 8.581,8.581 0 0 0 -1.334,2.578 q -0.741,2.23 -0.741,5.397 z m 67.075,0 q 0,5.25 2.1,8 a 6.802,6.802 0 0 0 4.43,2.609 10.307,10.307 0 0 0 1.745,0.141 q 4.075,0 6.187,-2.737 1.571,-2.036 1.974,-5.475 a 21.86,21.86 0 0 0 0.139,-2.538 20.707,20.707 0 0 0 -0.196,-2.95 q -0.217,-1.502 -0.673,-2.719 a 8.545,8.545 0 0 0 -1.244,-2.268 6.827,6.827 0 0 0 -4.244,-2.532 10.467,10.467 0 0 0 -1.993,-0.181 q -4.075,0 -6.15,2.675 a 8.581,8.581 0 0 0 -1.334,2.578 Q 663,130.307 663,133.474 Z m -89.075,-10.65 a 11.662,11.662 0 0 0 -2.259,0.204 q -1.286,0.254 -2.263,0.826 a 5.519,5.519 0 0 0 -1.603,1.408 q -1.648,2.141 -1.847,6.86 a 31.974,31.974 0 0 0 -0.028,1.352 q 0,5.775 1.925,8.263 a 6.021,6.021 0 0 0 3.054,2.061 q 1.021,0.32 2.266,0.4 a 13.344,13.344 0 0 0 0.855,0.026 8.273,8.273 0 0 0 2.35,-0.314 5.968,5.968 0 0 0 3.35,-2.473 9.527,9.527 0 0 0 1.179,-2.55 q 0.37,-1.21 0.543,-2.677 a 23.779,23.779 0 0 0 0.153,-2.786 q 0,-5.071 -1.685,-7.694 a 6.885,6.885 0 0 0 -0.19,-0.281 6.052,6.052 0 0 0 -3.853,-2.438 9.598,9.598 0 0 0 -1.947,-0.187 z"
       id="bottom_labelLayer"
       stroke="#777777"
       fill="#777777"
       style="fill:#777777;stroke:#777777"
       vector-effect="non-scaling-stroke" />
  </g>
  <rect
     style="fill:none;stroke-width:0.264583"
     id="rect250"
     width="59.91087"
     height="13.162236"
     x="146.14621"
     y="452.81119" />
  <rect
     style="fill:none;stroke:#ff0000;stroke-width:0.264583;stroke-dasharray:none;stroke-opacity:0.133333"
     id="rect1189"
     width="19.365129"
     height="19.365129"
     x="9.8338547"
     y="449.48279" />
</svg>
