<?xml version="1.0" standalone="no"?>
<!DOCTYPE svg PUBLIC "-//W3C//DTD SVG 20010904//EN"
 "http://www.w3.org/TR/2001/REC-SVG-20010904/DTD/svg10.dtd">
<svg version="1.0" xmlns="http://www.w3.org/2000/svg"
 width="462.000000pt" height="462.000000pt" viewBox="0 0 462.000000 462.000000"
 preserveAspectRatio="xMidYMid meet">
<metadata>
Created by potrace 1.14, written by Peter Selinger 2001-2017
</metadata>
<g transform="translate(0.000000,462.000000) scale(0.100000,-0.100000)"
fill="#000000" stroke="none">
<path d="M1218 4438 c-804 -656 -948 -775 -957 -796 -21 -43 -12 -70 47 -144
33 -40 377 -461 765 -936 l706 -863 -40 -57 c-75 -107 -87 -223 -36 -335 45
-99 148 -177 253 -193 l42 -6 -18 -41 c-28 -66 -33 -116 -16 -194 52 -251 226
-357 480 -293 48 12 88 20 90 18 54 -97 191 -237 289 -296 148 -89 165 -94
815 -202 331 -55 618 -100 638 -100 26 0 43 8 65 29 38 38 39 80 2 121 l-28
30 -610 101 c-635 105 -669 113 -781 180 -70 43 -173 142 -208 201 -14 24 -58
129 -97 234 -85 227 -124 312 -176 390 -53 79 -270 425 -372 595 -87 146 -95
173 -64 236 38 80 159 116 248 73 38 -18 57 -39 107 -114 238 -354 428 -610
469 -632 46 -23 150 -20 229 6 170 57 279 172 268 284 -2 22 -45 178 -95 346
-120 400 -111 356 -75 390 39 35 48 70 30 108 -11 21 -453 571 -617 766 -15
18 60 -35 461 -326 l177 -128 69 -177 c39 -98 127 -329 197 -513 159 -420 329
-848 361 -911 58 -116 128 -159 306 -189 128 -22 155 -19 184 25 31 47 15 112
-33 134 -13 6 -69 19 -125 28 -74 12 -108 23 -128 40 -34 28 -68 108 -302 708
-235 604 -297 759 -353 887 l-46 106 -102 80 c-149 116 -290 217 -587 419
-146 99 -325 222 -398 274 l-133 95 -285 350 c-157 192 -293 355 -302 362 -9
6 -33 12 -53 12 -34 0 -60 -18 -261 -182z m643 -523 c211 -258 546 -670 746
-914 200 -244 362 -445 361 -446 -2 -1 -104 -84 -227 -185 l-225 -183 -15 24
c-135 208 -408 249 -586 88 -91 -84 -134 -211 -106 -314 l11 -40 -24 30 c-13
17 -315 385 -670 820 -639 781 -645 790 -626 809 51 52 966 793 971 787 3 -3
179 -217 390 -476z m1194 -1904 l86 -293 -21 -23 c-27 -29 -101 -61 -161 -70
l-46 -7 -138 198 c-76 109 -138 204 -139 211 -1 11 324 287 330 280 1 -1 41
-134 89 -296z m-960 -479 c44 -75 80 -141 80 -147 0 -5 -29 -26 -65 -47 -78
-46 -130 -50 -180 -15 -62 42 -85 114 -56 180 15 33 122 167 134 167 4 -1 43
-63 87 -138z m293 -577 c34 -82 63 -156 64 -164 4 -20 -85 -42 -150 -38 -62 4
-97 27 -129 83 -48 83 -21 164 78 238 35 25 66 43 70 39 3 -5 34 -75 67 -158z"/>
<path d="M1623 3749 c-197 -33 -428 -210 -521 -401 -49 -99 -67 -185 -59 -276
13 -156 91 -234 171 -171 42 33 49 64 30 121 -40 123 7 261 131 383 165 163
379 210 509 110 85 -64 117 -70 165 -29 25 21 31 33 31 67 0 35 -6 46 -43 81
-105 100 -254 142 -414 115z"/>
<path d="M1726 3400 c-126 -32 -275 -147 -334 -258 -78 -146 -79 -347 -2 -424
36 -36 78 -37 119 -3 36 31 41 54 24 120 -18 71 -16 116 8 180 40 107 156 195
270 203 69 5 116 -9 174 -54 57 -43 85 -50 124 -30 98 51 55 159 -95 232 -64
32 -84 37 -161 40 -48 2 -105 -1 -127 -6z"/>
<path d="M1903 3089 c-100 -19 -206 -95 -258 -184 -51 -86 -55 -200 -9 -255
31 -37 66 -45 108 -25 42 20 60 60 52 112 -12 68 45 139 131 162 30 8 43 6 83
-15 57 -30 89 -25 126 19 79 94 -74 217 -233 186z"/>
</g>
</svg>
